<?xml version="1.0" standalone="no"?><!DOCTYPE svg PUBLIC "-//W3C//DTD SVG 1.1//EN" "http://www.w3.org/Graphics/SVG/1.1/DTD/svg11.dtd"><svg t="1680576402716" class="icon" viewBox="0 0 1024 1024" version="1.1" xmlns="http://www.w3.org/2000/svg" p-id="7820" xmlns:xlink="http://www.w3.org/1999/xlink" width="200" height="200"><path d="M60.6 713.6c0-102.5 83-185.6 185.6-185.6s185.7 83.1 185.7 185.6-83.1 185.6-185.7 185.6c-102.5 0-185.6-83.1-185.6-185.6z m48.8 0c0.2 75.5 61.3 136.6 136.8 136.8 75.6-0.2 136.7-61.3 136.8-136.8-0.1-75.6-61.2-136.6-136.8-136.8-75.5 0.2-136.6 61.2-136.8 136.8z m611-500.2c0 48.1-38.8 87-86.7 87-47.8 0-86.6-38.9-86.6-87 0-48 38.8-86.9 86.6-86.9 48 0 86.7 38.9 86.7 86.9zM585.7 713.6c0-102.5 82.8-185.6 185-185.6 102.5 0 185.7 83.1 185.7 185.6s-83.1 185.6-185.7 185.6c-102.2 0-185-83.1-185-185.6z m48.7 0c0.1 75.5 60.9 136.6 136.3 136.7 75.6-0.1 136.6-61.3 136.8-136.7-0.1-75.5-61.2-136.6-136.8-136.7-75.4 0.1-136.2 61.2-136.3 136.7z m-172.7 37.9V591.8l-117.1-116c-8.9-8.8-13.9-20.7-13.9-33.1 0-12.6 4.8-24.4 13.7-33.2l119.3-119.3c8.7-8.8 20.7-13.7 33.1-13.7 12.3 0 24.3 5 33.1 13.7l85.7 86.1h120c25.7 0 46.7 20.9 46.7 46.7 0 25.7-21 46.7-46.7 46.7H596.4c-12.4 0-24.2-4.9-32.9-13.7l-66.7-66.6-53 53.1 97.7 96.7c8.8 8.8 13.8 20.7 13.8 33.3l0.1 179.1c0 25.8-20.9 46.8-46.7 46.8-26-0.1-47-21.1-47-46.9z" fill="#707070" p-id="7821"></path></svg>