<?xml version="1.0" standalone="no"?><!DOCTYPE svg PUBLIC "-//W3C//DTD SVG 1.1//EN" "http://www.w3.org/Graphics/SVG/1.1/DTD/svg11.dtd"><svg t="1680574436668" class="icon" viewBox="0 0 1024 1024" version="1.1" xmlns="http://www.w3.org/2000/svg" p-id="4042" xmlns:xlink="http://www.w3.org/1999/xlink" width="200" height="200"><path d="M537.6 819.2c-212.0704 0-384-171.9296-384-384C153.6 223.1296 325.5296 51.2 537.6 51.2c212.0704 0 384 171.9296 384 384 0 212.0704-171.9296 384-384 384z m0-64c176.7424 0 320-143.2576 320-320S714.3424 115.2 537.6 115.2 217.6 258.4576 217.6 435.2 360.8576 755.2 537.6 755.2z" fill="#707070" p-id="4043"></path><path d="M435.2 797.8752c0-16.512 11.4688-29.8752 25.6-29.8752s25.6 13.3632 25.6 29.8752v119.4496c0 16.512-11.4688 29.8752-25.6 29.8752s-25.6-13.3632-25.6-29.8752v-119.4496zM563.2 797.8752c0-16.512 11.4688-29.8752 25.6-29.8752s25.6 13.3632 25.6 29.8752v119.4496c0 16.512-11.4688 29.8752-25.6 29.8752s-25.6-13.3632-25.6-29.8752v-119.4496z" fill="#707070" p-id="4044"></path><path d="M364.8 972.8c-17.664 0-32-11.4688-32-25.6s14.336-25.6 32-25.6h320c17.664 0 32 11.4688 32 25.6s-14.336 25.6-32 25.6h-320z" fill="#707070" p-id="4045"></path><path d="M512 636.3392c0 16.1536-11.4688 29.2608-25.6 29.2608s-25.6-13.1072-25.6-29.2608V285.2608c0-16.1536 11.4688-29.2608 25.6-29.2608s25.6 13.1072 25.6 29.2608v351.0784z" fill="#707070" p-id="4046"></path><path d="M518.4 313.6v115.2h57.6a57.6 57.6 0 1 0 0-115.2h-57.6zM460.8 256h115.2a115.2 115.2 0 0 1 0 230.4H460.8v-230.4z" fill="#707070" p-id="4047"></path></svg>